<?xml version="1.0" encoding="UTF-8" standalone="no"?>
<svg
   xmlns:dc="http://purl.org/dc/elements/1.1/"
   xmlns:cc="http://creativecommons.org/ns#"
   xmlns:rdf="http://www.w3.org/1999/02/22-rdf-syntax-ns#"
   xmlns:svg="http://www.w3.org/2000/svg"
   xmlns="http://www.w3.org/2000/svg"
   xmlns:sodipodi="http://sodipodi.sourceforge.net/DTD/sodipodi-0.dtd"
   xmlns:inkscape="http://www.inkscape.org/namespaces/inkscape"
   height="512pt"
   viewBox="0 0 512 512"
   width="512pt"
   version="1.1"
   id="svg190"
   sodipodi:docname="pindwin.svg"
   inkscape:version="1.0.1 (3bc2e813f5, 2020-09-07)">
  <metadata
     id="metadata196">
    <rdf:RDF>
      <cc:Work
         rdf:about="">
        <dc:format>image/svg+xml</dc:format>
        <dc:type
           rdf:resource="http://purl.org/dc/dcmitype/StillImage" />
        <dc:title></dc:title>
      </cc:Work>
    </rdf:RDF>
  </metadata>
  <defs
     id="defs194" />
  <sodipodi:namedview
     pagecolor="#ffffff"
     bordercolor="#666666"
     borderopacity="1"
     objecttolerance="10"
     gridtolerance="10"
     guidetolerance="10"
     inkscape:pageopacity="0"
     inkscape:pageshadow="2"
     inkscape:window-width="1366"
     inkscape:window-height="740"
     id="namedview192"
     showgrid="false"
     inkscape:zoom="0.39916992"
     inkscape:cx="752.91546"
     inkscape:cy="554.73108"
     inkscape:window-x="0"
     inkscape:window-y="0"
     inkscape:window-maximized="1"
     inkscape:current-layer="svg190" />
  <path
     d="m 0,96 v 384 c 0,17.67969 14.320312,32 32,32 h 448 c 17.67969,0 32,-14.32031 32,-32 V 96 Z"
     fill="#e1eaf7"
     id="path170"
     style="fill:#e1eaf7;fill-opacity:1"
     sodipodi:nodetypes="csssscc" />
  <path
     d="M 0,0 H 505.63856 512 V 5.6821086 128 H 0 Z"
     fill="#b0bec5"
     id="path172"
     style="fill:#000057;fill-opacity:1"
     sodipodi:nodetypes="ccccccc" />
  <path
     d="m 62.734629,46.734629 c 5.855311,-5.855311 18.98667,-5.855311 24.841981,0 5.855309,5.855311 5.855309,18.98667 0,24.841981 -5.855311,5.855311 -18.98667,5.855311 -24.841981,0 -5.855311,-5.855311 -5.855311,-18.98667 0,-24.841981 z"
     fill="#fff"
     id="path174"
     style="fill:#ff0000;fill-opacity:1;stroke-width:0.776312"
     sodipodi:nodetypes="aaaaa" />
  <path
     d="m 126.65837,46.658374 c 5.75364,-5.753637 18.65699,-5.753637 24.41062,0 5.75364,5.753638 5.75364,18.65698 0,24.410617 -5.75363,5.753638 -18.65698,5.753638 -24.41062,0 -5.75363,-5.753637 -5.75363,-18.656979 0,-24.410617 z"
     fill="#fff"
     id="path176"
     style="fill:#00acff;fill-opacity:1;stroke-width:0.762832"
     sodipodi:nodetypes="aaaaa" />
  <path
     d="M 432,80 H 208 c -8.83203,0 -16,-7.167969 -16,-16 0,-8.832031 7.16797,-16 16,-16 h 224 c 8.83203,0 16,7.167969 16,16 0,8.832031 -7.16797,16 -16,16 z"
     fill="#90a4ae"
     id="path178"
     style="fill:#ffffff;fill-opacity:1"
     sodipodi:nodetypes="sssssss" />
  <path
     d="m 160.53107,479.71657 c 0,17.67969 14.32032,32 32,32 h 320 v -192 h -352 z"
     fill="#c1cee3"
     id="path180"
     sodipodi:nodetypes="sscccs" />
  <g
     id="g1806"
     style="opacity:1">
    <path
       style="color:#000000;font-style:normal;font-variant:normal;font-weight:normal;font-stretch:normal;font-size:medium;line-height:normal;font-family:sans-serif;font-variant-ligatures:normal;font-variant-position:normal;font-variant-caps:normal;font-variant-numeric:normal;font-variant-alternates:normal;font-variant-east-asian:normal;font-feature-settings:normal;font-variation-settings:normal;text-indent:0;text-align:start;text-decoration:none;text-decoration-line:none;text-decoration-style:solid;text-decoration-color:#000000;letter-spacing:normal;word-spacing:normal;text-transform:none;writing-mode:lr-tb;direction:ltr;text-orientation:mixed;dominant-baseline:auto;baseline-shift:baseline;text-anchor:start;white-space:normal;shape-padding:0;shape-margin:0;inline-size:0;clip-rule:nonzero;display:inline;overflow:visible;visibility:visible;isolation:auto;mix-blend-mode:normal;color-interpolation:sRGB;color-interpolation-filters:linearRGB;solid-color:#000000;solid-opacity:1;vector-effect:none;fill:#001dc5;fill-opacity:1;fill-rule:nonzero;stroke:none;stroke-width:1;stroke-linecap:butt;stroke-linejoin:miter;stroke-miterlimit:4;stroke-dasharray:none;stroke-dashoffset:0;stroke-opacity:1;color-rendering:auto;image-rendering:auto;shape-rendering:auto;text-rendering:auto;enable-background:accumulate;stop-color:#000000;stop-opacity:1"
       d="m 163.41732,226.96679 c 3.83862,-4.13071 16.41805,-3.25022 16.41805,-3.25022 h 154.54409 178.15161 v 96 h -352 v -77.15271 c 0,0 -0.74393,-11.69067 2.88625,-15.59707 z"
       id="path1808"
       sodipodi:nodetypes="sccccccs" />
  </g>
  <g
     id="g536"
     transform="matrix(0.14354736,0,0,0.14414587,437.23505,223.10086)">
    <path
       style="fill:#cfd8dc"
       d="m 189.04548,348.72115 -42.667,-42.667 c -2.182,-2.236 -5.25,-3.378 -8.363,-3.115 -3.092,0.223 -5.935,1.78 -7.787,4.267 l -117.268996,160 c -3.5350001,4.713 -2.58,11.399 2.133,14.933 3.793,2.844 9.007,2.844 12.8,0 l 159.999996,-117.333 c 4.752,-3.481 5.783,-10.156 2.302,-14.908 -0.323,-0.44 -0.678,-0.855 -1.064,-1.241 z"
       id="path469" />
    <path
       style="fill:#d32f2f"
       d="m 327.71148,274.05415 -106.666,-106.666 c -17.945,-13.971 -40.303,-21.048 -63.019,-19.947 -29.736,-1.04 -58.625996,10.003 -80.084996,30.613 -17.323,17.323 -15.531,44.096 5.333,79.595 19.703996,30.896 42.974996,59.365 69.332996,84.821 42.432,42.411 96,86.485 135.04,86.485 11.003,0.279 21.632,-3.998 29.376,-11.819 44.416,-44.394 33.344,-120.404 10.688,-143.082 z"
       id="path471" />
    <path
       style="fill:#f44336"
       d="M 413.04548,188.72115 306.37848,82.054145 c -4.165,-4.164 -10.917,-4.164 -15.083,0 l -85.333,85.333005 c -13.952,13.952 -12.8,44.8 32,89.749 29.248,29.248 52.565,39.893 69.12,39.893 7.662,0.271 15.105,-2.577 20.629,-7.893 l 85.333,-85.333 c 4.165,-4.165 4.165,-10.917 10e-4,-15.082 z"
       id="path473" />
    <path
       style="fill:#d32f2f"
       d="m 522.01548,160.19815 c -1.649,-3.989 -5.54,-6.591 -9.856,-6.592 -23.125,0 -73.899,-25.003 -109.781,-60.885005 -35.882,-35.882 -60.885,-86.6349995 -60.885,-109.781 0.01,-5.891 -4.757,-10.675 -10.648,-10.686 -2.84,-0.005 -5.565,1.123 -7.571,3.134 -43.563,43.584 -57.173,117.909 10.667,185.749005 25.809,28.681 62.137,45.683 100.693,47.125 32.07,-0.368 62.675,-13.486 85.056,-36.459 3.047,-3.043 3.964,-7.621 2.325,-11.605 z"
       id="path475" />
    <path
       style="fill:#f44336"
       d="m 455.71148,39.388145 c -45.184,-45.1629995 -86.037,-67.115 -124.885,-67.115 -5.891,0 -10.667,4.776 -10.667,10.667 0,31.851 30.123,87.872 67.115,124.885005 36.992,37.013 93.056,67.115 124.885,67.115 5.891,0 10.667,-4.776 10.667,-10.667 0,-38.869 -21.952,-79.723005 -67.115,-124.885005 z"
       id="path477" />
    <g
       id="g479">
</g>
    <g
       id="g481">
</g>
    <g
       id="g483">
</g>
    <g
       id="g485">
</g>
    <g
       id="g487">
</g>
    <g
       id="g489">
</g>
    <g
       id="g491">
</g>
    <g
       id="g493">
</g>
    <g
       id="g495">
</g>
    <g
       id="g497">
</g>
    <g
       id="g499">
</g>
    <g
       id="g501">
</g>
    <g
       id="g503">
</g>
    <g
       id="g505">
</g>
    <g
       id="g507">
</g>
  </g>
  <path
     d="m 233.64522,263.22774 c 4.25648,-4.25648 13.80225,-4.25648 18.05874,0 4.25648,4.25648 4.25648,13.80225 0,18.05874 -4.25649,4.25648 -13.80226,4.25648 -18.05874,0 -4.25648,-4.25649 -4.25648,-13.80226 0,-18.05874 z"
     fill="#e1eaf7"
     id="path186"
     sodipodi:nodetypes="aaaaa"
     style="stroke-width:0.564336" />
  <path
     d="m 425.00997,289.20436 h -128 c -8.83203,0 -16,-7.16797 -16,-16 0,-8.83203 7.16797,-16 16,-16 h 128 c 8.83203,0 16,7.16797 16,16 0,8.83203 -7.16797,16 -16,16 z"
     fill="#90a4ae"
     id="path188"
     sodipodi:nodetypes="sssssss" />
  <rect
     style="fill:#e1eaf7;fill-opacity:1;stroke-width:0.75"
     id="rect1361"
     width="282.16568"
     height="195.33344"
     x="-670.65265"
     y="50.778618" />
  <g
     id="g1789"
     transform="matrix(0.19767643,0,0,0.19767643,302.43041,354.64522)"
     style="fill:#ffffff;fill-opacity:1">
    <g
       id="g1732"
       style="fill:#ffffff;fill-opacity:1">
	<g
   id="g1730"
   style="fill:#ffffff;fill-opacity:1">
		<path
   d="M 405.284,201.188 130.804,13.28 C 118.128,4.596 105.356,0 94.74,0 74.216,0 61.52,16.472 61.52,44.044 v 406.124 c 0,27.54 12.68,43.98 33.156,43.98 10.632,0 23.2,-4.6 35.904,-13.308 L 405.188,292.936 c 17.66,-12.104 27.44,-28.392 27.44,-45.884 0.004,-17.48 -9.664,-33.764 -27.344,-45.864 z"
   id="path1728"
   style="fill:#ffffff;fill-opacity:1" />

	</g>

</g>
    <g
       id="g1734"
       style="fill:#ffffff;fill-opacity:1">
</g>
    <g
       id="g1736"
       style="fill:#ffffff;fill-opacity:1">
</g>
    <g
       id="g1738"
       style="fill:#ffffff;fill-opacity:1">
</g>
    <g
       id="g1740"
       style="fill:#ffffff;fill-opacity:1">
</g>
    <g
       id="g1742"
       style="fill:#ffffff;fill-opacity:1">
</g>
    <g
       id="g1744"
       style="fill:#ffffff;fill-opacity:1">
</g>
    <g
       id="g1746"
       style="fill:#ffffff;fill-opacity:1">
</g>
    <g
       id="g1748"
       style="fill:#ffffff;fill-opacity:1">
</g>
    <g
       id="g1750"
       style="fill:#ffffff;fill-opacity:1">
</g>
    <g
       id="g1752"
       style="fill:#ffffff;fill-opacity:1">
</g>
    <g
       id="g1754"
       style="fill:#ffffff;fill-opacity:1">
</g>
    <g
       id="g1756"
       style="fill:#ffffff;fill-opacity:1">
</g>
    <g
       id="g1758"
       style="fill:#ffffff;fill-opacity:1">
</g>
    <g
       id="g1760"
       style="fill:#ffffff;fill-opacity:1">
</g>
    <g
       id="g1762"
       style="fill:#ffffff;fill-opacity:1">
</g>
  </g>
  <path
     d="m 193.76727,263.45308 c 4.25648,-4.25648 13.80225,-4.25648 18.05874,0 4.25648,4.25648 4.25648,13.80225 0,18.05874 -4.25649,4.25648 -13.80226,4.25648 -18.05874,0 -4.25648,-4.25649 -4.25648,-13.80226 0,-18.05874 z"
     fill="#e1eaf7"
     id="path186-3"
     sodipodi:nodetypes="aaaaa"
     style="stroke-width:0.564336" />
  <path
     id="rect1830"
     style="fill:#001dc5;fill-opacity:1;stroke-width:0.75"
     d="m 448.45357,269.65065 c 0,0 3.68898,5.42197 6.11966,7.57233 2.03673,1.80184 6.92292,4.31593 6.92292,4.31593 l -24.95505,13.67224 z"
     sodipodi:nodetypes="caccc" />
</svg>
